<svg width="601" height="292" viewBox="0 0 601 292" fill="none" xmlns="http://www.w3.org/2000/svg">
<path d="M54.5499 134.14H2.74994C1.36994 134.14 0.319939 132.89 0.559939 131.53L20.4199 19.08C20.6099 18.02 21.5299 17.25 22.6099 17.25H73.3599C97.1699 17.25 109.32 29.07 105.99 47.55C103.9 59.41 96.5399 67.76 87.1599 72.12C85.4599 72.91 85.3799 75.29 87.0599 76.12C96.3899 80.74 100.98 91.06 98.9999 102.33C95.6699 121.64 79.1899 134.13 54.5399 134.13L54.5499 134.14ZM57.8799 85.18H39.0899C38.0099 85.18 37.0899 85.95 36.8999 87.01L33.0299 108.88C32.7899 110.24 33.8299 111.49 35.2199 111.49H53.5499C63.2099 111.49 69.1999 106.99 70.6999 98.5C72.3599 90.17 67.3699 85.18 57.8799 85.18ZM63.8699 39.73H47.0899C46.0099 39.73 45.0899 40.51 44.8999 41.57L41.3399 62.11C41.0999 63.47 42.1499 64.71 43.5299 64.71H59.3699C68.8599 64.71 74.8499 60.38 76.1899 52.39C77.5199 44.23 73.1899 39.74 63.8699 39.74V39.73Z" fill="white"/>
<path d="M161.78 39.89C172.78 39.89 180.51 43.9 185.05 49.65C186.22 51.13 188.61 50.48 188.94 48.62L189.93 43.06C190.12 42 191.04 41.23 192.12 41.23H216.08C217.46 41.23 218.51 42.48 218.27 43.84L202.57 132.31C202.38 133.37 201.46 134.14 200.38 134.14H176.45C175.06 134.14 174.01 132.87 174.27 131.51L174.91 128.13C175.3 126.08 172.91 124.67 171.31 126.01C164.68 131.6 155.6 135.47 144.79 135.47C122.15 135.47 107.33 116.82 112.49 87.52C117.65 58.21 138.96 39.9 161.78 39.9V39.89ZM165.78 64.7C155.12 64.7 143.97 72.69 141.47 87.51C138.81 102.33 146.96 110.65 157.62 110.65C168.28 110.65 179.43 102.49 182.1 87.67C184.76 72.85 176.61 64.69 165.78 64.69V64.7Z" fill="white"/>
<path d="M261.52 135.47C238.42 135.47 221.66 123.42 223.14 105.71C223.24 104.56 224.21 103.67 225.36 103.67H248.67C249.81 103.67 250.77 104.54 250.87 105.68C251.39 111.48 256.18 114.99 263.68 114.99C270.34 114.99 276 112.33 276 107.33C276 94.01 230.04 98.84 230.04 68.53C230.04 52.05 245.36 39.89 268.67 39.89C291.98 39.89 306.57 52.44 306.4 69.32C306.39 70.54 305.39 71.52 304.17 71.52H282.68C281.56 71.52 280.57 70.69 280.48 69.58C280.01 64.03 275.48 60.53 268 60.53C261.67 60.53 257.01 63.36 257.01 68.02C257.01 81.67 303.13 78.01 303.13 106.65C303.13 124.97 285.31 135.46 261.5 135.46L261.52 135.47Z" fill="white"/>
<path d="M333.98 41.23H357.94C359.32 41.23 360.37 42.48 360.13 43.83L344.59 132.3C344.4 133.36 343.48 134.14 342.4 134.14H318.44C317.06 134.14 316.01 132.89 316.25 131.54L331.79 43.07C331.98 42.01 332.9 41.23 333.98 41.23ZM333.95 16.25C335.62 7.59002 343.61 0.77002 353.76 0.77002C363.91 0.77002 369.41 7.60002 367.91 16.25C366.24 24.74 358.25 31.57 348.26 31.57C338.27 31.57 332.44 24.74 333.94 16.25H333.95Z" fill="white"/>
<path d="M422.53 39.89C444.97 39.89 458.92 51.77 460.83 72.41C460.95 73.72 459.93 74.85 458.61 74.85H432.46C431.46 74.85 430.59 74.17 430.32 73.2C428.8 67.66 424.85 64.19 417.7 64.19C407.54 64.19 399.22 72.18 396.55 87.67C393.72 103.15 399.38 111.15 409.54 111.15C416.93 111.15 421.95 107.73 425.43 101.6C425.83 100.9 426.58 100.49 427.39 100.49H453.11C454.73 100.49 455.82 102.18 455.13 103.65C445.95 123.28 427.87 135.46 405.72 135.46C378.41 135.46 362.26 117.14 367.59 87.67C372.75 58.37 395.23 39.88 422.54 39.88L422.53 39.89Z" fill="white"/>
<path d="M195.71 172.66H225.71C226.74 172.66 227.64 173.37 227.87 174.38L244.85 248.08C245.3 250.05 247.93 250.44 248.94 248.69L292.1 173.77C292.5 173.08 293.23 172.66 294.02 172.66H323.56C324.94 172.66 325.99 173.91 325.75 175.27L305.89 287.72C305.7 288.78 304.78 289.55 303.7 289.55H279.74C278.36 289.55 277.31 288.3 277.55 286.94L287.21 232.69C287.65 230.22 284.29 229.03 283.08 231.23L251.57 288.41C251.18 289.12 250.43 289.56 249.63 289.56H229.79C228.73 289.56 227.82 288.81 227.61 287.77L216.29 230.79C215.81 228.38 212.35 228.42 211.93 230.84L201.98 287.72C201.79 288.78 200.87 289.56 199.79 289.56H175.83C174.45 289.56 173.4 288.31 173.64 286.95L193.5 174.5C193.69 173.44 194.61 172.67 195.69 172.67L195.71 172.66Z" fill="white"/>
<path d="M368.51 290.88C344.2 290.88 327.72 275.4 327.72 251.92C327.72 219.78 352.2 195.31 385.16 195.31C409.47 195.31 426.29 210.96 426.29 234.44C426.29 266.91 401.15 290.89 368.51 290.89V290.88ZM372.51 266.4C387.16 266.4 396.82 251.58 396.82 237.1C396.82 225.44 389.66 219.78 381 219.78C366.18 219.78 357.02 234.6 357.02 249.42C357.02 260.74 363.68 266.4 372.5 266.4H372.51Z" fill="white"/>
<path d="M458.73 289.55H434.76C433.38 289.55 432.33 288.3 432.57 286.95L448.11 198.48C448.3 197.42 449.22 196.64 450.3 196.64H474.26C475.64 196.64 476.69 197.89 476.45 199.25L475.28 205.79C474.9 207.93 477.47 209.26 479.03 207.75C485.97 201.01 494.41 196.54 503.56 195.76C505 195.64 506.15 196.94 505.9 198.37L501.38 223.95C501.19 225.01 500.27 225.78 499.19 225.78H493.23C479.74 225.78 471.08 230.44 468.25 246.43L460.92 287.72C460.73 288.78 459.81 289.55 458.73 289.55Z" fill="white"/>
<path d="M544.51 290.88C517.2 290.88 500.72 272.56 506.05 243.09C511.21 213.62 533.69 195.3 561.33 195.3C588.97 195.3 604.62 213.28 599.63 241.42C599.23 243.57 598.71 245.73 598.09 247.97C597.83 248.93 596.95 249.58 595.95 249.58H535.26C534.07 249.58 533.08 250.52 533.04 251.71C532.65 262.57 538.91 267.73 547.68 267.73C555.17 267.73 560.18 264.22 563.38 259.66C563.8 259.07 564.49 258.74 565.22 258.74H590.79C592.44 258.74 593.54 260.49 592.78 261.95C584.21 278.51 566.28 290.87 544.52 290.87L544.51 290.88ZM539.02 235.1H569.65C570.81 235.1 571.8 234.2 571.87 233.04C572.44 223.23 565.88 218.12 556.83 218.12C548.28 218.12 540.8 222.99 536.98 232C536.36 233.47 537.43 235.11 539.02 235.11V235.1Z" fill="white"/>
<path d="M139.83 234.63L140.98 217.02C141.05 215.92 140.21 214.97 139.11 214.93C138.52 214.9 137.81 214.88 137 214.87C117.51 214.63 99.09 223.76 87.28 239.26C86.28 240.93 85.28 242.42 84.28 243.92L60.8 216.11C56.46 210.65 54.29 206.42 54.15 202.39C53.95 196.89 58.33 192.19 63.8 191.69C68.68 191.24 72.62 193.59 72.62 198.3C72.62 198.3 72.62 198.31 72.62 198.32C72.62 199.41 73.5 200.3 74.59 200.3H97.42C98.4 200.3 99.24 199.58 99.37 198.62C99.52 197.49 99.6 196.44 99.6 195.31C99.6 181.99 89.28 171.17 68.46 171.17C44.32 171.17 26.83 184.99 26.83 205.8C26.83 210.96 28.33 215.79 31.99 221.45C13.67 229.28 0.52002 243.26 0.52002 261.41C0.52002 279.56 15.67 291.38 39.98 291.38C55.3 291.38 68.78 287.22 80.77 279.06L89.17 288.86C89.54 289.3 90.09 289.55 90.66 289.55H118.64C120.32 289.55 121.23 287.59 120.14 286.31L99.58 262.08C113.24 239.35 132.16 236.73 137.94 236.48C138.94 236.44 139.74 235.65 139.81 234.64L139.83 234.63ZM45.65 268.4C35.33 268.4 29.67 263.07 29.67 256.08C29.67 248.25 35.5 241.43 44.82 237.1L66.3 262.24C60.14 266.24 53.31 268.4 45.65 268.4Z" fill="white"/>
</svg>
