<svg width="178" height="24" viewBox="0 0 178 24" fill="none" xmlns="http://www.w3.org/2000/svg">
<path d="M9.62178 22.9071H1.28055C1.05938 22.9071 0.890115 22.7056 0.928481 22.486L4.1264 4.32375C4.15574 4.15168 4.30469 4.02716 4.47847 4.02716H12.6504C16.4848 4.02716 18.4415 5.93576 17.9043 8.92204C17.5681 10.8374 16.3832 12.1868 14.8712 12.8909C14.5981 13.0177 14.5845 13.4026 14.8554 13.5362C16.3584 14.2833 17.0964 15.9497 16.7782 17.77C16.241 20.8898 13.587 22.9071 9.61952 22.9071H9.62178ZM10.1589 15.001H7.13475C6.96098 15.001 6.81203 15.1256 6.78269 15.2976L6.15981 18.8295C6.12144 19.0492 6.28844 19.2507 6.51187 19.2507H9.4638C11.0188 19.2507 11.9847 18.5239 12.2262 17.1519C12.4947 15.807 11.689 15.001 10.1612 15.001H10.1589ZM11.1226 7.6587H8.42115C8.24737 7.6587 8.09842 7.78323 8.06908 7.95529L7.49585 11.2721C7.45748 11.4917 7.62674 11.691 7.84791 11.691H10.3981C11.926 11.691 12.8919 10.9914 13.1063 9.70088C13.3207 8.3832 12.6234 7.65644 11.1226 7.65644V7.6587Z" fill="white"/>
<path d="M26.8865 7.68585C28.6581 7.68585 29.9016 8.33337 30.6328 9.26163C30.8224 9.50162 31.206 9.39521 31.258 9.09409L31.4159 8.19526C31.4453 8.0232 31.5942 7.89867 31.768 7.89867H35.6249C35.8483 7.89867 36.0153 8.10017 35.977 8.31979L33.4493 22.6105C33.42 22.7826 33.271 22.9071 33.0973 22.9071H29.2449C29.0214 22.9071 28.8522 22.7033 28.8928 22.4814L28.9966 21.9358C29.0598 21.6053 28.6739 21.3766 28.4189 21.5939C27.3514 22.4973 25.889 23.1222 24.149 23.1222C20.5042 23.1222 18.1165 20.111 18.9492 15.3768C19.7797 10.6427 23.2124 7.68585 26.8842 7.68585H26.8865ZM27.5297 11.6932C25.8145 11.6932 24.0181 12.9837 23.6163 15.3768C23.1875 17.7699 24.501 19.1148 26.2162 19.1148C27.9314 19.1148 29.7278 17.7971 30.1566 15.404C30.5854 13.0109 29.272 11.6932 27.5297 11.6932Z" fill="white"/>
<path d="M42.9461 23.1244C39.2268 23.1244 36.5277 21.1773 36.7669 18.3178C36.7827 18.1322 36.9384 17.9873 37.1257 17.9873H40.8788C41.0639 17.9873 41.2173 18.1277 41.2331 18.3111C41.3166 19.2484 42.0885 19.8144 43.2959 19.8144C44.3679 19.8144 45.2796 19.3842 45.2796 18.5782C45.2796 16.4274 37.8795 17.2062 37.8795 12.3113C37.8795 9.64879 40.3462 7.68585 44.0993 7.68585C47.8524 7.68585 50.2018 9.71218 50.1747 12.4404C50.1747 12.6373 50.0122 12.7958 49.8159 12.7958H46.3561C46.1756 12.7958 46.0176 12.6622 46.0018 12.4834C45.9251 11.5868 45.1961 11.0208 43.991 11.0208C42.9731 11.0208 42.2216 11.4781 42.2216 12.2321C42.2216 14.4373 49.6466 13.8463 49.6466 18.4718C49.6466 21.4309 46.7782 23.1244 42.9438 23.1244H42.9461Z" fill="white"/>
<path d="M54.6139 7.90095H58.473C58.6942 7.90095 58.8635 8.10245 58.8251 8.32206L56.3245 22.6128C56.2952 22.7848 56.1463 22.9094 55.9725 22.9094H52.1133C51.8921 22.9094 51.7229 22.7079 51.7612 22.4882L54.2618 8.19754C54.2911 8.02547 54.4401 7.90095 54.6139 7.90095ZM54.6071 3.8664C54.8757 2.46722 56.1621 1.36462 57.7983 1.36462C59.4345 1.36462 60.3191 2.46722 60.0777 3.8664C59.8091 5.23842 58.5227 6.34101 56.9136 6.34101C55.3045 6.34101 54.3679 5.23842 54.6071 3.8664Z" fill="white"/>
<path d="M68.8703 7.68586C72.4835 7.68586 74.729 9.60578 75.0359 12.9385C75.0562 13.149 74.8892 13.3324 74.6793 13.3324H70.4681C70.3056 13.3324 70.168 13.2237 70.1251 13.0652C69.8791 12.1709 69.2427 11.6095 68.0939 11.6095C66.4577 11.6095 65.1172 12.9 64.6884 15.4018C64.2325 17.9035 65.1443 19.194 66.7805 19.194C67.9698 19.194 68.7778 18.6416 69.3374 17.6522C69.4006 17.539 69.5225 17.4734 69.6534 17.4734H73.7947C74.0565 17.4734 74.2302 17.7473 74.1197 17.9828C72.6414 21.1547 69.7301 23.1199 66.1643 23.1199C61.768 23.1199 59.1682 20.1608 60.0258 15.4018C60.8563 10.6676 64.4762 7.68359 68.8725 7.68359L68.8703 7.68586Z" fill="white"/>
<path d="M111.718 3.94788H116.55C116.717 3.94788 116.862 4.06334 116.898 4.22635L119.633 16.1307C119.705 16.4477 120.13 16.5111 120.292 16.2304L127.241 4.129C127.304 4.01806 127.424 3.95014 127.55 3.95014H132.305C132.526 3.95014 132.696 4.15164 132.657 4.37125L129.459 22.5335C129.43 22.7056 129.281 22.8301 129.107 22.8301H125.25C125.027 22.8301 124.86 22.6286 124.898 22.409L126.455 13.6448C126.525 13.2463 125.986 13.0539 125.79 13.4094L120.716 22.6444C120.653 22.7599 120.534 22.8301 120.403 22.8301H117.207C117.035 22.8301 116.889 22.7101 116.857 22.5403L115.036 13.3369C114.959 12.9475 114.402 12.9543 114.334 13.346L112.732 22.5335C112.702 22.7056 112.553 22.8301 112.38 22.8301H108.523C108.302 22.8301 108.132 22.6286 108.171 22.409L111.369 4.24673C111.398 4.07466 111.547 3.95014 111.721 3.95014L111.718 3.94788Z" fill="white"/>
<path d="M139.541 23.0429C135.627 23.0429 132.973 20.5411 132.973 16.7488C132.973 11.5573 136.914 7.60431 142.222 7.60431C146.135 7.60431 148.843 10.1333 148.843 13.9233C148.843 19.1668 144.794 23.0406 139.541 23.0406V23.0429ZM140.184 19.0899C142.542 19.0899 144.097 16.6967 144.097 14.3557C144.097 12.472 142.944 11.5596 141.551 11.5596C139.166 11.5596 137.69 13.9527 137.69 16.3458C137.69 18.1752 138.762 19.0899 140.184 19.0899Z" fill="white"/>
<path d="M154.068 22.8278H150.209C149.987 22.8278 149.818 22.6263 149.857 22.4067L152.357 8.11601C152.386 7.94394 152.535 7.81942 152.709 7.81942H156.566C156.79 7.81942 156.957 8.02092 156.918 8.24053L156.731 9.29558C156.67 9.63972 157.083 9.85707 157.333 9.61255C158.451 8.52354 159.809 7.80131 161.283 7.67678C161.515 7.65641 161.7 7.86696 161.66 8.0979L160.931 12.2298C160.901 12.4019 160.752 12.5264 160.579 12.5264H159.62C157.448 12.5264 156.054 13.2803 155.598 15.8613L154.418 22.5312C154.388 22.7033 154.239 22.8278 154.066 22.8278H154.068Z" fill="white"/>
<path d="M167.879 23.0429C163.483 23.0429 160.829 20.0838 161.687 15.3247C162.517 10.5634 166.137 7.60657 170.588 7.60657C175.038 7.60657 177.559 10.5113 176.753 15.0553C176.688 15.404 176.607 15.7504 176.505 16.1126C176.462 16.2666 176.32 16.373 176.162 16.373H166.39C166.198 16.373 166.038 16.5247 166.031 16.7171C165.968 18.4718 166.977 19.3049 168.39 19.3049C169.597 19.3049 170.403 18.7367 170.917 18.0008C170.985 17.9057 171.095 17.8514 171.213 17.8514H175.329C175.596 17.8514 175.772 18.1344 175.65 18.3699C174.269 21.046 171.382 23.0429 167.879 23.0429ZM166.995 14.032H171.926C172.113 14.032 172.274 13.8871 172.283 13.6991C172.375 12.1143 171.319 11.2879 169.861 11.2879C168.484 11.2879 167.281 12.0735 166.665 13.5293C166.564 13.7671 166.738 14.032 166.995 14.032Z" fill="white"/>
<path d="M102.723 13.9573L102.908 11.1114C102.919 10.9325 102.784 10.7808 102.605 10.774C102.511 10.7695 102.395 10.7672 102.265 10.765C99.1275 10.7265 96.1621 12.2004 94.2596 14.7044C94.0993 14.9738 93.9368 15.2161 93.7766 15.4583L89.9964 10.9665C89.2968 10.0835 88.9492 9.40199 88.9244 8.74994C88.8928 7.86243 89.5969 7.10171 90.4794 7.02021C91.2647 6.94776 91.8989 7.32585 91.8989 8.08658C91.8989 8.08658 91.8989 8.08658 91.8989 8.08884C91.8989 8.26544 92.0411 8.40807 92.2149 8.40807H95.8912C96.0492 8.40807 96.1846 8.29261 96.2049 8.13639C96.2298 7.953 96.241 7.78319 96.241 7.60207C96.241 5.45122 94.5778 3.70337 91.2286 3.70337C87.3424 3.70337 84.5259 5.93573 84.5259 9.29785C84.5259 10.131 84.7673 10.9121 85.3564 11.8268C82.4067 13.0901 80.2898 15.3497 80.2898 18.2816C80.2898 21.2136 82.7294 23.1222 86.6428 23.1222C89.1095 23.1222 91.2805 22.4497 93.2101 21.1321L94.562 22.7146C94.6229 22.7848 94.7109 22.8256 94.8034 22.8256H99.3081C99.5789 22.8256 99.7233 22.5086 99.5496 22.3026L96.2388 18.388C98.4392 14.7157 101.484 14.2923 102.416 14.2539C102.578 14.2471 102.707 14.118 102.716 13.9573H102.723ZM87.5568 19.4114C85.8935 19.4114 84.984 18.551 84.984 17.4213C84.984 16.1579 85.9228 15.0553 87.4236 14.3557L90.8811 18.4175C89.8881 19.0627 88.789 19.4136 87.5568 19.4136V19.4114Z" fill="white"/>
</svg>
