<svg width="130" height="93" viewBox="0 0 130 93" fill="none" xmlns="http://www.w3.org/2000/svg">
<path fill-rule="evenodd" clip-rule="evenodd" d="M58.1294 55.0846C56.7934 56.7941 53.4815 59.9566 51.2362 61.6693C50.1788 62.4821 48.4008 63.6037 47.4048 64.0925C45.1032 65.2206 41.1278 66.3455 37.8548 66.8011C34.5216 67.2617 30.745 67.3587 26.7402 67.0953L25.33 67.0028L25.7486 67.2272C25.9797 67.3496 26.6513 67.7068 27.2372 68.02L28.3072 68.5885L28.4882 68.995C28.8323 69.7637 29.0142 71.3586 28.7728 71.4802C28.672 71.532 28.2056 71.3824 27.9145 71.2034C27.7807 71.1178 27.4844 70.9972 27.2589 70.9437C26.9663 70.8727 26.8134 70.8003 26.738 70.6902C26.6669 70.6012 26.152 70.2716 25.4121 69.8599C23.2842 68.6652 22.4849 68.2517 21.6756 67.9264L20.8924 67.6104L20.6646 67.2103C20.2419 66.453 19.9134 64.1976 20.1723 63.793C20.301 63.5919 21.0772 63.4021 24.1674 62.815C25.5469 62.5499 27.9922 62.0369 29.6005 61.653L32.5227 60.9729L32.7148 61.3065C33.0752 61.9441 33.3911 63.919 33.1833 64.2437C33.1437 64.3056 31.0093 65.1556 30.2404 65.4119L29.7918 65.5571L30.2093 65.5773C30.975 65.6096 34.1249 65.5076 35.1454 65.4195C37.5492 65.2105 40.369 64.6793 42.3792 64.0622C45.3569 63.1452 48.057 61.7781 50.1148 60.1416C52.5504 58.2093 54.7203 56.114 56.6369 53.864C57.5198 52.8236 59.6936 49.4268 60.2209 48.2638C61.1236 46.2585 62.1026 43.1109 62.5724 40.6868C62.7007 40.0024 62.7073 39.8032 62.5823 39.1312C62.4334 38.3131 62.4869 37.8348 62.7245 37.9361C63.0948 38.0859 63.5809 39.7557 63.5857 40.9213C63.5992 41.8452 63.4516 42.7207 62.9978 44.4973C62.4115 46.8033 61.7406 48.7023 60.8357 50.6444C60.3993 51.5821 58.7494 54.2825 58.1193 55.0781L58.1294 55.0846Z" fill="white"/>
<path d="M10.5808 18.4164C10.0975 18.3316 9.77479 18.1342 9.61259 17.8242C9.45039 17.5142 9.41537 17.0965 9.50753 16.5712C9.59231 16.0879 9.7922 15.4732 10.1072 14.7271C10.4346 13.9723 10.8354 13.1383 11.3096 12.2252C11.7962 11.3034 12.3242 10.3618 12.8935 9.40043C13.4647 8.42851 14.048 7.48037 14.6434 6.556C15.2406 5.62113 15.8125 4.76847 16.3592 3.99801C16.6128 3.66347 16.8567 3.44634 17.0908 3.34662C17.3248 3.24691 17.568 3.21917 17.8201 3.2634C18.0618 3.3058 18.2546 3.41003 18.3988 3.5761C18.5448 3.73166 18.5929 3.95128 18.5431 4.23495C18.532 4.29798 18.4056 4.52488 18.1638 4.91564C17.9238 5.29589 17.6092 5.793 17.2199 6.40697C16.8324 7.01044 16.404 7.69334 15.9345 8.45569C15.4669 9.20753 14.9929 9.99614 14.5123 10.8215C14.0337 11.6364 13.5883 12.4463 13.1764 13.2512C12.7644 14.0562 12.4161 14.8073 12.1313 15.5045C12.5857 15.0753 13.0755 14.5981 13.6008 14.0729C14.1385 13.5391 14.6804 13.0115 15.2268 12.4901C15.7854 11.96 16.3244 11.4806 16.8436 11.0518C17.3733 10.6249 17.854 10.2923 18.2857 10.054C18.7174 9.81568 19.0751 9.7214 19.3587 9.77116C19.884 9.86332 20.2785 10.0841 20.5421 10.4336C20.818 10.7744 20.8942 11.2968 20.7707 12.0007C20.7136 12.3264 20.5814 12.7093 20.3743 13.1495C20.1689 13.5791 19.9327 14.0304 19.6656 14.5034C19.4109 14.9677 19.18 15.4199 18.9728 15.8601C18.7656 16.3002 18.6316 16.6937 18.5708 17.0404C18.5376 17.2295 18.6103 17.3397 18.7889 17.371C19.3037 17.4613 19.8432 17.4423 20.4072 17.3138C20.9817 17.1872 21.5392 17.0034 22.0796 16.7625C22.6324 16.5129 23.1369 16.2603 23.5933 16.0047C24.062 15.7403 24.4418 15.52 24.7327 15.3436C24.9408 15.2068 25.123 15.1251 25.2793 15.0983C25.4374 15.0611 25.5795 15.0536 25.7056 15.0757C26.1364 15.1512 26.314 15.4044 26.2384 15.8352C26.2236 15.9192 26.1895 16.0215 26.1358 16.1421C26.084 16.2521 25.9584 16.3817 25.759 16.5308C25.5595 16.6799 25.2632 16.8878 24.8698 17.1545C24.4765 17.4212 24.0217 17.6988 23.5054 17.9873C22.9996 18.2776 22.4546 18.5448 21.8703 18.7888C21.2984 19.0242 20.7208 19.199 20.1376 19.3133C19.5544 19.4276 19.0054 19.4396 18.4906 19.3492C17.7132 19.2128 17.153 18.8872 16.8102 18.3722C16.4655 17.8677 16.3586 17.2425 16.4895 16.4965C16.5798 15.9817 16.7982 15.354 17.1447 14.6134C17.4931 13.8623 17.8705 13.1001 18.2769 12.3267C17.8465 12.6194 17.3884 12.9776 16.9025 13.4013C16.4185 13.8146 15.9237 14.2584 15.4181 14.7329C14.9143 15.1968 14.4168 15.6564 13.9254 16.1117C13.4463 16.5583 12.9904 16.9656 12.5576 17.3337C12.1267 17.6913 11.742 17.9704 11.4036 18.1709C11.0652 18.3714 10.7909 18.4533 10.5808 18.4164ZM26.2855 20.4568C25.6341 20.3425 25.1484 20.0245 24.8284 19.5027C24.5103 18.9704 24.4406 18.1947 24.6194 17.1756C24.7337 16.5242 24.9215 15.8857 25.1829 15.2601C25.4566 14.6259 25.7816 14.0385 26.158 13.4981C26.5467 12.949 26.9655 12.4756 27.4143 12.0778C27.8737 11.6819 28.3522 11.3923 28.8501 11.2089C29.3498 11.015 29.8413 10.9604 30.3245 11.0452C31.144 11.1889 31.7462 11.522 32.1311 12.0444C32.5159 12.5667 32.6485 13.1694 32.5286 13.8523C32.4365 14.3776 32.2055 14.8298 31.8358 15.209C31.4784 15.5794 31.0233 15.8895 30.4705 16.139C29.9178 16.3886 29.3127 16.5965 28.6555 16.7628C27.9982 16.929 27.3297 17.0663 26.6502 17.1745C26.5313 17.5435 26.446 17.8751 26.3944 18.1692C26.3631 18.3478 26.4472 18.4547 26.6468 18.4897C27.1196 18.5726 27.6368 18.5875 28.1984 18.5345C28.7724 18.4727 29.359 18.3699 29.9582 18.2259C30.5593 18.0714 31.1403 17.908 31.7012 17.7357C32.2639 17.5529 32.7766 17.3775 33.2392 17.2096C33.7142 17.033 34.1012 16.8951 34.4001 16.7959C34.7115 16.6881 34.9091 16.6416 34.9932 16.6563C35.2243 16.6969 35.3804 16.7946 35.4615 16.9497C35.5426 17.1047 35.5694 17.261 35.5417 17.4186C35.5288 17.4921 35.3584 17.6301 35.0305 17.8325C34.7131 18.0367 34.2824 18.2698 33.7383 18.5317C33.2065 18.7849 32.6089 19.0429 31.9456 19.3055C31.2946 19.5595 30.62 19.7932 29.922 20.0064C29.2363 20.211 28.5775 20.3553 27.9455 20.4394C27.3221 20.5358 26.7688 20.5416 26.2855 20.4568ZM27.1641 15.8189C27.6391 15.6423 28.1107 15.4543 28.5789 15.2549C29.0594 15.0468 29.4719 14.7942 29.8164 14.4973C30.1627 14.1899 30.3774 13.7997 30.4603 13.327C30.4843 13.1904 30.4632 13.0946 30.397 13.0397C30.3327 12.9743 30.2322 12.9296 30.0956 12.9056C29.7279 12.8411 29.3631 12.945 29.0013 13.2172C28.65 13.4913 28.3136 13.8655 27.9922 14.3397C27.6831 14.8053 27.4071 15.2984 27.1641 15.8189ZM35.2637 21.4796C35.0115 21.4354 34.7741 21.3071 34.5515 21.0948C34.3412 20.8738 34.1858 20.5866 34.0853 20.2332C33.9867 19.8694 33.9789 19.4511 34.0618 18.9783C34.1724 18.3479 34.3744 17.6903 34.6679 17.0053C34.9718 16.3223 35.3125 15.6456 35.69 14.9754C36.0675 14.3052 36.4323 13.6762 36.7846 13.0882C36.9536 12.8038 37.1314 12.6238 37.3179 12.5482C37.5063 12.4621 37.737 12.4431 38.0102 12.491C38.6301 12.5997 38.8856 12.964 38.7769 13.5839C38.7584 13.689 38.6752 13.8855 38.5272 14.1736C38.3811 14.4512 38.1914 14.7916 37.9582 15.1947C37.7356 15.5996 37.496 16.0395 37.2394 16.5143C36.9952 16.9805 36.7596 17.459 36.5327 17.9498C36.3182 18.432 36.1345 18.8925 35.9817 19.3314C36.2878 19.006 36.6359 18.596 37.026 18.1013C37.4283 17.5979 37.8511 17.071 38.2942 16.5207C38.7478 15.9721 39.194 15.4656 39.6329 15.0011C40.0736 14.5261 40.4915 14.15 40.8867 13.8728C41.2819 13.5956 41.6318 13.4837 41.9365 13.5372C42.1991 13.5832 42.4368 13.6791 42.6495 13.8247C42.8746 13.9617 43.0515 14.1876 43.1804 14.5026C43.3111 14.8071 43.3785 15.2251 43.3828 15.7565C43.3975 16.2897 43.3311 16.9766 43.1837 17.8171C43.11 18.2373 43.0749 18.6535 43.0784 19.0656C43.0942 19.4691 43.1737 19.8188 43.3167 20.1146C43.4616 20.3999 43.7074 20.573 44.0541 20.6338C44.6529 20.7389 45.2081 20.7226 45.7196 20.5849C46.2311 20.4472 46.6912 20.2626 47.1 20.0311C47.5089 19.7996 47.8534 19.5947 48.1338 19.4165C48.3067 19.2952 48.453 19.2017 48.5728 19.1361C48.7031 19.0724 48.8051 19.0469 48.8786 19.0598C49.0992 19.0985 49.2467 19.184 49.321 19.3161C49.4058 19.4501 49.4307 19.6169 49.3956 19.8165C49.3772 19.9216 49.2538 20.1003 49.0254 20.3526C48.7971 20.605 48.4878 20.8864 48.0976 21.197C47.7197 21.4989 47.2964 21.782 46.8277 22.0464C46.359 22.3107 45.8689 22.5117 45.3574 22.6494C44.8459 22.787 44.3433 22.8126 43.8495 22.726C43.0195 22.5803 42.3571 22.3125 41.8624 21.9225C41.38 21.5238 41.0693 20.9495 40.9301 20.1995C40.7928 19.439 40.832 18.4441 41.0476 17.2149C41.0531 17.1834 41.0624 17.1308 41.0753 17.0573C41.1324 16.7316 41.1778 16.4418 41.2116 16.1878C41.2558 15.9356 41.276 15.728 41.2721 15.5649C41.0364 15.8592 40.7528 16.2102 40.4214 16.6177C40.1005 17.0271 39.753 17.4643 39.3791 17.9293C39.0069 18.3839 38.6252 18.8313 38.2339 19.2716C37.8444 19.7015 37.4623 20.0893 37.0876 20.4351C36.7234 20.7827 36.3835 21.0534 36.068 21.2471C35.7524 21.4408 35.4843 21.5183 35.2637 21.4796ZM60.2542 17.6767C60.2321 17.8028 60.1707 17.9057 60.0701 17.9855C59.9695 18.0653 59.8515 18.1204 59.7162 18.1508C59.5247 18.1931 59.1982 18.2332 58.7366 18.2714C58.2751 18.3095 57.7163 18.3469 57.0601 18.3834C56.4144 18.4217 55.7205 18.457 54.9785 18.4893C54.2382 18.511 53.4989 18.5275 52.7605 18.5388C52.3104 19.4994 51.8496 20.4907 51.3779 21.5126C50.9081 22.5239 50.441 23.5195 49.9767 24.4994C49.8071 24.8487 49.6322 25.105 49.4519 25.2683C49.2698 25.4421 49.0002 25.4977 48.643 25.435C48.2542 25.3668 48.0137 25.1946 47.9214 24.9185C47.8377 24.6548 47.88 24.3211 48.0483 23.9174C48.5223 22.8202 48.9615 21.798 49.3659 20.851C49.7808 19.9058 50.1153 19.1414 50.3693 18.5579C49.7205 18.5523 49.1542 18.5396 48.6703 18.5197C48.1883 18.4893 47.8484 18.4513 47.6507 18.4058C47.4337 18.3461 47.2655 18.2245 47.1461 18.0411C47.0266 17.8577 46.9925 17.6514 47.0435 17.4221C47.1014 17.2156 47.2273 17.0536 47.4212 16.936C47.6169 16.8079 47.8331 16.7484 48.0698 16.7574C48.401 16.783 48.8296 16.8095 49.3554 16.8368C49.8813 16.864 50.4615 16.89 51.0961 16.9147C51.3267 16.4029 51.5811 15.8789 51.8592 15.3429C52.1392 14.7964 52.4198 14.2771 52.7011 13.785C52.9947 13.2842 53.2658 12.8498 53.5145 12.4819C53.7631 12.114 53.9767 11.8537 54.1551 11.7009C54.2946 11.5846 54.4549 11.5044 54.6359 11.4603C54.8274 11.4181 55.0072 11.4118 55.1753 11.4413C55.3959 11.48 55.5607 11.5901 55.6696 11.7717C55.7786 11.9532 55.8146 12.149 55.7777 12.3592C55.763 12.4432 55.7421 12.5316 55.715 12.6243C55.6897 12.7065 55.654 12.7869 55.6077 12.8654C55.3159 13.3557 54.989 13.9535 54.627 14.6589C54.2756 15.3662 53.9006 16.1451 53.5023 16.9957C54.3106 17.0184 55.1031 17.0383 55.8798 17.0554C56.6689 17.0639 57.3825 17.07 58.0208 17.0737C58.6715 17.0687 59.1933 17.0574 59.5863 17.0397C59.8093 17.003 59.9851 17.0501 60.1138 17.181C60.2443 17.3013 60.2911 17.4666 60.2542 17.6767ZM65.645 27.4269C65.3088 27.3679 65.0207 27.2199 64.7808 26.9828C64.5389 26.7563 64.365 26.4821 64.259 26.1603C64.1549 25.828 64.1332 25.4885 64.1941 25.1418C64.3083 24.4904 64.5617 23.8796 64.9541 23.3095C65.357 22.7413 65.8437 22.2202 66.4142 21.7463C66.9846 21.2724 67.5888 20.8532 68.2268 20.4886C68.8771 20.1154 69.5101 19.8095 70.1259 19.571C70.7522 19.3343 71.3131 19.162 71.8086 19.0539C72.3145 18.9478 72.6988 18.9177 72.9615 18.9638C73.2662 19.0173 73.5011 19.1289 73.6662 19.2986C73.8437 19.4597 73.9085 19.6768 73.8606 19.95C73.8458 20.0341 73.8129 20.0987 73.7616 20.1438C73.8927 20.1993 73.9892 20.2974 74.0511 20.4383C74.113 20.5791 74.1219 20.7756 74.0776 21.0277C74.0592 21.1328 73.985 21.4013 73.8551 21.8334C73.7251 22.2654 73.5733 22.7911 73.3997 23.4104C73.2366 24.0316 73.0951 24.6836 72.9753 25.3665C72.9569 25.4716 72.9561 25.5689 72.9728 25.6585C72.9914 25.7375 73.0533 25.7863 73.1583 25.8047C73.5786 25.8785 74.0188 25.8691 74.4791 25.7765C74.9517 25.6753 75.415 25.5346 75.869 25.3543C76.3353 25.1654 76.7587 24.9744 77.1391 24.7812C77.5319 24.5794 77.8586 24.4147 78.1192 24.2871C78.3922 24.1509 78.5654 24.0893 78.639 24.1022C78.9962 24.1648 79.1435 24.3748 79.0808 24.732C79.0642 24.8265 78.9136 25.0059 78.629 25.27C78.3568 25.5255 77.9922 25.8135 77.5353 26.134C77.0802 26.444 76.5778 26.7458 76.0282 27.0392C75.4909 27.324 74.9437 27.542 74.3865 27.6934C73.8398 27.8465 73.3301 27.8816 72.8573 27.7987C72.2794 27.6973 71.8621 27.4833 71.6054 27.1567C71.3591 26.832 71.2135 26.4274 71.1685 25.943C71.1359 25.4499 71.1659 24.9083 71.2587 24.3181C70.5883 24.9911 69.9117 25.5763 69.2288 26.0738C68.5582 26.5626 67.9141 26.9315 67.2964 27.1805C66.6788 27.4295 66.1283 27.5116 65.645 27.4269ZM72.609 20.5102C71.4927 20.8233 70.4687 21.2285 69.5367 21.7256C68.6067 22.2122 67.8392 22.7598 67.2342 23.3684C66.6398 23.9789 66.2864 24.6046 66.1739 25.2454C66.1426 25.424 66.211 25.5281 66.3791 25.5576C66.5787 25.5926 66.8616 25.5231 67.2279 25.3491C67.6046 25.177 68.0205 24.9359 68.4756 24.6258C68.9325 24.3053 69.3968 23.9427 69.8685 23.5382C70.342 23.1231 70.7911 22.6929 71.2158 22.2476C71.6405 21.8022 71.9932 21.366 72.2739 20.9387C72.3769 20.7835 72.4886 20.6407 72.609 20.5102ZM76.4734 33.9237C76.1792 33.8721 75.9665 33.7265 75.8353 33.4869C75.7127 33.2596 75.6883 32.9358 75.762 32.5156C75.8634 31.9377 76.0367 31.2588 76.2818 30.4788C76.5269 29.6987 76.8172 28.8779 77.1524 28.0162C77.4877 27.1545 77.836 26.3113 78.1972 25.4866C78.6226 24.5433 79.0271 23.6883 79.4107 22.9217C79.8048 22.157 80.1703 21.5551 80.5072 21.1161C80.8565 20.6683 81.1625 20.4675 81.4251 20.5136C81.6668 20.556 81.8612 20.6822 82.0085 20.8921C82.1681 21.0934 82.2184 21.3621 82.1594 21.6983C82.1171 21.94 81.9932 22.2756 81.7879 22.7053C81.5844 23.1244 81.33 23.6483 81.0248 24.277C81.4852 23.7514 81.9543 23.238 82.4321 22.7371C82.9203 22.2379 83.4046 21.7922 83.885 21.4C84.3653 21.0078 84.8185 20.7082 85.2447 20.5014C85.6708 20.2946 86.052 20.2207 86.3882 20.2797C86.7874 20.3497 87.1191 20.527 87.3832 20.8116C87.6579 21.0981 87.8495 21.4566 87.958 21.8871C88.0666 22.3177 88.0767 22.7851 87.9882 23.2894C87.8241 24.2245 87.4966 25.1038 87.0056 25.9273C86.5164 26.7404 85.9116 27.4411 85.1911 28.0294C84.4811 28.6196 83.6961 29.0504 82.8363 29.322C81.9783 29.583 81.0923 29.6333 80.1782 29.4729C79.9156 29.4268 79.6785 29.3582 79.4671 29.2669C79.2644 29.1881 79.0792 29.1014 78.9117 29.0071C78.6676 29.6573 78.4261 30.3243 78.187 31.0079C77.9566 31.7039 77.7145 32.4358 77.4607 33.2035C77.2333 33.7592 76.9042 33.9993 76.4734 33.9237ZM86.2195 22.1669C85.9884 22.1264 85.6666 22.2324 85.2541 22.4849C84.8521 22.7393 84.4011 23.0879 83.901 23.5308C83.4028 23.9632 82.891 24.442 82.3657 24.9671C81.8528 25.4836 81.3574 25.9923 80.8796 26.4933C80.4124 26.9961 80.0106 27.4346 79.6742 27.8088C80.4874 27.8648 81.2282 27.7782 81.8965 27.5489C82.5667 27.3091 83.1605 26.9801 83.6779 26.5619C84.1953 26.1436 84.6332 25.6844 84.9917 25.1842C85.3626 24.6753 85.6571 24.1692 85.8753 23.666C86.0936 23.1628 86.2368 22.7169 86.305 22.3281C86.3216 22.2336 86.2931 22.1798 86.2195 22.1669ZM87.6311 35.8812C87.337 35.8295 87.1243 35.6839 86.993 35.4443C86.8704 35.2171 86.846 34.8933 86.9198 34.473C87.0211 33.8952 87.1944 33.2163 87.4395 32.4362C87.6847 31.6562 87.9749 30.8353 88.3102 29.9736C88.6454 29.1119 88.9937 28.2688 89.355 27.4441C89.7804 26.5008 90.1849 25.6458 90.5684 24.8792C90.9625 24.1145 91.328 23.5126 91.6649 23.0735C92.0142 22.6258 92.3202 22.425 92.5828 22.4711C92.8245 22.5135 93.0189 22.6396 93.1662 22.8496C93.3258 23.0508 93.3762 23.3196 93.3172 23.6558C93.2748 23.8974 93.1509 24.2331 92.9456 24.6627C92.7421 25.0819 92.4877 25.6058 92.1825 26.2345C92.6429 25.7088 93.112 25.1955 93.5898 24.6945C94.078 24.1954 94.5623 23.7497 95.0427 23.3575C95.523 22.9652 95.9763 22.6657 96.4024 22.4589C96.8285 22.2521 97.2097 22.1782 97.5459 22.2372C97.9452 22.3072 98.2768 22.4845 98.541 22.7691C98.8156 23.0555 99.0072 23.414 99.1158 23.8446C99.2243 24.2752 99.2344 24.7426 99.1459 25.2469C98.9819 26.182 98.6543 27.0612 98.1633 27.8848C97.6741 28.6978 97.0693 29.3985 96.3488 29.9869C95.6388 30.5771 94.8539 31.0079 93.994 31.2794C93.136 31.5404 92.25 31.5907 91.3359 31.4304C91.0733 31.3843 90.8363 31.3156 90.6248 31.2244C90.4221 31.1455 90.2369 31.0589 90.0694 30.9645C89.8254 31.6148 89.5838 32.2818 89.3447 32.9654C89.1143 33.6614 88.8722 34.3932 88.6184 35.1609C88.391 35.7166 88.0619 35.9567 87.6311 35.8812ZM97.3773 24.1244C97.1461 24.0838 96.8243 24.1898 96.4118 24.4424C96.0098 24.6967 95.5588 25.0454 95.0587 25.4883C94.5605 25.9207 94.0487 26.3995 93.5234 26.9246C93.0105 27.4411 92.5151 27.9498 92.0374 28.4508C91.5701 28.9536 91.1683 29.3921 90.8319 29.7663C91.6451 29.8223 92.3859 29.7357 93.0543 29.5064C93.7244 29.2666 94.3182 28.9375 94.8356 28.5193C95.353 28.1011 95.7909 27.6419 96.1494 27.1416C96.5203 26.6327 96.8148 26.1267 97.0331 25.6235C97.2513 25.1203 97.3945 24.6743 97.4627 24.2856C97.4793 24.191 97.4508 24.1373 97.3773 24.1244ZM101.789 33.7028C101.137 33.5885 100.652 33.2704 100.332 32.7486C100.013 32.2163 99.9438 31.4406 100.123 30.4215C100.237 29.7701 100.425 29.1316 100.686 28.5061C100.96 27.8718 101.285 27.2845 101.661 26.744C102.05 26.195 102.469 25.7215 102.917 25.3238C103.377 24.9279 103.855 24.6382 104.353 24.4548C104.853 24.2609 105.344 24.2063 105.828 24.2911C106.647 24.4349 107.249 24.7679 107.634 25.2903C108.019 25.8127 108.152 26.4153 108.032 27.0982C107.94 27.6235 107.709 28.0757 107.339 28.4549C106.982 28.8254 106.526 29.1354 105.974 29.385C105.421 29.6345 104.816 29.8424 104.159 30.0087C103.501 30.175 102.833 30.3122 102.153 30.4204C102.034 30.7894 101.949 31.121 101.898 31.4152C101.866 31.5938 101.95 31.7006 102.15 31.7356C102.623 31.8185 103.14 31.8335 103.702 31.7804C104.276 31.7186 104.862 31.6158 105.461 31.4718C106.062 31.3174 106.643 31.154 107.204 30.9816C107.767 30.7988 108.28 30.6234 108.742 30.4555C109.217 30.2789 109.604 30.141 109.903 30.0419C110.215 29.934 110.412 29.8875 110.496 29.9022C110.727 29.9428 110.884 30.0406 110.965 30.1956C111.046 30.3506 111.073 30.5069 111.045 30.6645C111.032 30.738 110.862 30.876 110.534 31.0784C110.216 31.2826 109.786 31.5157 109.241 31.7776C108.71 32.0309 108.112 32.2888 107.449 32.5515C106.798 32.8055 106.123 33.0391 105.425 33.2524C104.74 33.457 104.081 33.6013 103.449 33.6853C102.825 33.7817 102.272 33.7875 101.789 33.7028ZM102.667 29.0648C103.142 28.8882 103.614 28.7002 104.082 28.5008C104.563 28.2927 104.975 28.0402 105.32 27.7432C105.666 27.4358 105.881 27.0457 105.963 26.5729C105.987 26.4363 105.966 26.3406 105.9 26.2856C105.836 26.2202 105.735 26.1755 105.599 26.1515C105.231 26.087 104.866 26.1909 104.504 26.4631C104.153 26.7372 103.817 27.1114 103.495 27.5856C103.186 28.0512 102.91 28.5443 102.667 29.0648ZM123.383 36.5652C123.22 37.1214 122.834 37.3461 122.225 37.2392C121.91 37.1839 121.674 37.0451 121.518 36.8229C121.373 36.6024 121.331 36.3136 121.394 35.9564C121.501 35.347 121.641 34.7002 121.816 34.016C122.002 33.3232 122.2 32.6269 122.409 31.9272C122.629 31.2294 122.838 30.5622 123.037 29.9255C122.563 30.4055 122.065 30.8975 121.543 31.4017C121.022 31.9058 120.503 32.3941 119.987 32.8667C119.471 33.3393 118.979 33.7621 118.513 34.1352C118.059 34.4996 117.652 34.7855 117.291 34.9929C116.931 35.1897 116.646 35.2697 116.436 35.2328C115.932 35.1444 115.528 34.884 115.225 34.4518C114.924 34.0091 114.824 33.4988 114.925 32.9209C114.96 32.7213 115.028 32.4571 115.129 32.1283C115.232 31.7889 115.349 31.4304 115.48 31.0528C115.611 30.6751 115.729 30.3166 115.831 29.9772C115.934 29.6379 116.003 29.3684 116.038 29.1688C116.038 29.1688 116.04 29.1583 116.044 29.1373C116.063 29.0866 116.058 29.0585 116.026 29.053C115.984 29.0456 115.844 29.1672 115.605 29.4177C115.368 29.6576 115.074 29.9743 114.723 30.3676C114.373 30.761 114.003 31.1726 113.613 31.6024C113.234 32.0341 112.877 32.437 112.54 32.8112C112.214 33.1872 111.947 33.476 111.738 33.6777C111.445 33.9943 111.19 34.1824 110.973 34.242C110.757 34.3015 110.518 34.3082 110.255 34.2621C109.887 34.1976 109.62 34.0261 109.452 33.7476C109.297 33.4604 109.258 33.091 109.338 32.6392C109.371 32.4501 109.454 32.1615 109.587 31.7733C109.731 31.3869 109.897 30.9613 110.087 30.4965C110.279 30.0211 110.468 29.5615 110.654 29.1177C110.853 28.6652 111.022 28.2835 111.164 27.9725C111.334 27.5583 111.518 27.282 111.715 27.1433C111.925 26.9961 112.167 26.9464 112.44 26.9943C113.081 27.1068 113.346 27.4782 113.235 28.1085C113.215 28.2241 113.145 28.4068 113.025 28.6565C112.906 28.9063 112.763 29.1953 112.597 29.5236C112.431 29.8518 112.258 30.1897 112.078 30.5371C111.9 30.8741 111.746 31.1937 111.618 31.496C111.947 31.0989 112.303 30.6741 112.686 30.2214C113.069 29.7687 113.455 29.3274 113.844 28.8976C114.244 28.4696 114.631 28.0827 115.006 27.7369C115.391 27.393 115.757 27.1322 116.102 26.9545C116.449 26.7663 116.759 26.6962 117.032 26.7441C117.305 26.792 117.556 26.9388 117.783 27.1845C118.013 27.4197 118.185 27.7044 118.3 28.0386C118.427 28.3641 118.461 28.6949 118.402 29.0311C118.346 29.3463 118.238 29.7172 118.076 30.1437C117.915 30.5702 117.739 31.0159 117.549 31.4807C117.36 31.9456 117.203 32.4055 117.08 32.8604C117.507 32.5238 117.965 32.1384 118.452 31.7041C118.942 31.2594 119.445 30.8007 119.961 30.3281C120.477 29.8555 120.98 29.3968 121.469 28.952C121.969 28.5091 122.43 28.108 122.85 27.7485C123.281 27.3909 123.654 27.1153 123.97 26.9216C124.287 26.7173 124.519 26.6281 124.667 26.6539C125.097 26.7295 125.413 26.9041 125.614 27.1776C125.828 27.4425 125.886 27.8533 125.788 28.4101C125.727 28.7568 125.622 29.204 125.471 29.7516C125.332 30.3011 125.163 30.8941 124.964 31.5308C124.778 32.1587 124.58 32.7954 124.369 33.4407C124.171 34.0773 123.986 34.6676 123.815 35.2115C123.644 35.7555 123.5 36.2067 123.383 36.5652Z" fill="white"/>
</svg>
