<svg width="113" height="115" viewBox="0 0 113 115" fill="none" xmlns="http://www.w3.org/2000/svg">
<path fill-rule="evenodd" clip-rule="evenodd" d="M54.1507 73.8349C55.5967 75.4524 59.1102 78.3892 61.4638 79.9499C62.5725 80.691 64.4208 81.6927 65.4469 82.1146C67.818 83.0882 71.859 83.948 75.155 84.1863C78.5114 84.4257 82.2861 84.273 86.2647 83.7456L87.6658 83.5602L87.2629 83.8116C87.0404 83.9491 86.3938 84.3499 85.8299 84.7011L84.7998 85.339L84.6461 85.7566C84.3535 86.5464 84.2774 88.1498 84.5263 88.2552C84.6303 88.3002 85.0858 88.1201 85.3644 87.9223C85.4922 87.828 85.78 87.6881 86.0015 87.6198C86.2887 87.5297 86.4365 87.4473 86.5045 87.3325C86.5695 87.2389 87.0615 86.8761 87.7726 86.4164C89.817 85.0837 90.5872 84.6184 91.3732 84.2402L92.1338 83.8732L92.3347 83.4589C92.7064 82.6754 92.8852 80.4032 92.6001 80.0165C92.4584 79.8244 91.6713 79.6863 88.5491 79.3047C87.1551 79.1313 84.6813 78.7809 83.0512 78.5041L80.0904 78.0186L79.9208 78.3642C79.6032 79.0242 79.4186 81.0156 79.6474 81.3259C79.691 81.385 81.8768 82.0922 82.6609 82.2971L83.1182 82.4123L82.7029 82.4601C81.9411 82.5429 78.7912 82.6492 77.7672 82.6288C75.3549 82.579 72.5061 82.2352 70.4595 81.7523C67.4277 81.0341 64.6432 79.8483 62.4818 78.3513C59.9239 76.5842 57.6203 74.6369 55.5592 72.5184C54.6095 71.5386 52.216 68.2929 51.613 67.1672C50.5799 65.2259 49.395 62.1498 48.7661 59.7621C48.5928 59.0877 48.5731 58.8893 48.6534 58.2106C48.7479 57.3844 48.663 56.9107 48.4326 57.0274C48.073 57.2014 47.6983 58.8997 47.7705 60.0631C47.8181 60.9859 48.0232 61.8497 48.5934 63.5924C49.3307 65.8546 50.1256 67.7051 51.1569 69.5832C51.6543 70.49 53.479 73.0756 54.1603 73.8278L54.1507 73.8349Z" fill="white"/>
<path d="M12.0241 53.6385C11.7026 53.7267 11.3997 53.7062 11.1153 53.5769C10.8345 53.4604 10.6293 53.1157 10.4997 52.5429C10.3525 51.9058 10.2175 51.2378 10.0947 50.5386C9.97193 49.8395 9.86794 49.1837 9.78273 48.571C9.59342 47.2265 9.3567 46.213 9.07258 45.5306C8.79779 44.8317 8.45732 44.3721 8.05117 44.1517C7.65788 43.9279 7.18354 43.8368 6.62813 43.8787C6.35686 43.8978 6.12467 43.8579 5.93155 43.7588C5.73491 43.6469 5.60305 43.4687 5.536 43.2244C5.44776 42.903 5.5181 42.6556 5.74702 42.4821C5.96309 42.3122 6.26398 42.1743 6.64972 42.0684C6.94544 41.9872 7.33004 41.9024 7.80351 41.8139C8.2863 41.709 8.79948 41.5889 9.34303 41.4535C9.38717 39.8514 9.55976 38.4905 9.8608 37.3709C10.1618 36.2512 10.5708 35.3232 11.0876 34.5868C11.6009 33.8375 12.2005 33.2513 12.8862 32.828C13.5684 32.3918 14.3081 32.0644 15.1053 31.8455C16.0953 31.5738 16.6874 31.7915 16.8815 32.4987C16.9768 32.8458 16.882 33.1553 16.5971 33.4271C16.3123 33.6988 15.845 33.9861 15.1953 34.2889C14.4241 34.6527 13.7828 35.1121 13.2715 35.6673C12.7731 36.2189 12.3895 36.9118 12.1207 37.746C11.8648 38.5767 11.7168 39.599 11.6767 40.813C13.4533 40.2838 14.8927 39.785 15.9946 39.3166C17.0966 38.8482 17.9368 38.4586 18.5151 38.1477C19.1028 37.8205 19.5188 37.6234 19.7631 37.5563C20.1103 37.461 20.3454 37.4864 20.4684 37.6323C20.6043 37.7748 20.6987 37.9424 20.7516 38.1353C20.8116 38.3539 20.6677 38.6354 20.3197 38.9797C20.0921 39.2081 19.709 39.5 19.1705 39.8552C18.6284 40.1975 17.9835 40.5681 17.2358 40.967C16.4845 41.3529 15.6811 41.7255 14.8257 42.0848C13.9796 42.4276 13.1387 42.7138 12.3029 42.9432C12.0972 42.9997 11.9108 43.0508 11.7436 43.0967C11.8069 43.8813 11.8825 44.7109 11.9705 45.5854C12.0678 46.4436 12.1726 47.279 12.2851 48.0916C12.3975 48.9041 12.5034 49.6424 12.6027 50.3065C12.7149 50.967 12.8175 51.4919 12.9105 51.8812C13.0282 52.3604 13.0031 52.7476 12.8352 53.0425C12.6673 53.3375 12.3969 53.5362 12.0241 53.6385ZM24.2434 48.7911C23.6648 48.9499 23.0959 48.9678 22.5367 48.8448C21.981 48.7346 21.4708 48.4875 21.0059 48.1036C20.727 48.4981 20.482 48.8143 20.2707 49.052C20.0594 49.2897 19.9024 49.4227 19.7995 49.451C19.5166 49.5286 19.2722 49.5196 19.0662 49.4241C18.8731 49.325 18.7377 49.134 18.6601 48.8512C18.5542 48.4654 18.597 48.1426 18.7883 47.8827C19.1057 47.4775 19.4441 46.9975 19.8033 46.4426C19.6601 46.1225 19.5356 45.7695 19.4297 45.3838C19.1968 44.5352 19.0885 43.7629 19.1049 43.0671C19.1342 42.3677 19.2379 41.8139 19.4162 41.4054C19.3458 41.3003 19.2913 41.177 19.2524 41.0356C19.1289 40.5856 19.1433 40.0839 19.2956 39.5305C19.4607 38.9736 19.7264 38.4305 20.0928 37.9014C20.4684 37.3558 20.912 36.8815 21.4236 36.4783C21.9316 36.0624 22.4749 35.775 23.0535 35.6161C23.6063 35.4644 24.1354 35.4021 24.6406 35.4293C25.1459 35.4566 25.6133 35.5979 26.0429 35.8533C26.3227 35.3617 26.5548 34.973 26.7391 34.6874C26.9363 34.3982 27.067 34.2448 27.1313 34.2272C27.3498 34.1672 27.551 34.1949 27.7348 34.3104C27.9186 34.4259 28.0476 34.6186 28.1217 34.8886C28.157 35.0172 28.1001 35.2886 27.9511 35.7028C27.8114 36.1006 27.5994 36.5875 27.315 37.1633C27.5941 37.6259 27.8219 38.1787 27.9983 38.8216C28.2983 39.9145 28.4188 41.0082 28.3598 42.1029C28.2973 43.1847 28.0908 44.1954 27.7403 45.135C27.3864 46.0618 26.9047 46.8508 26.2953 47.502C25.6988 48.1496 25.0148 48.5794 24.2434 48.7911ZM25.876 40.0056C25.3176 41.0437 24.7194 42.1136 24.0816 43.215C23.4437 44.3165 22.8279 45.322 22.2342 46.2317C22.5577 46.6544 22.938 46.8058 23.3751 46.6858C23.9537 46.527 24.4542 46.1339 24.8765 45.5064C25.3081 44.8625 25.6149 44.0662 25.797 43.1175C25.9919 42.1653 26.0182 41.128 25.876 40.0056ZM24.9654 37.746C24.6332 37.6436 24.1456 37.6807 23.5027 37.8572C23.207 37.9383 22.9096 38.0891 22.6106 38.3094C22.3116 38.5298 22.0571 38.7863 21.8471 39.079C21.6499 39.3682 21.5341 39.6765 21.4995 40.004C21.4627 40.3736 21.4129 40.6707 21.3501 40.8953C21.3002 41.1164 21.2461 41.2972 21.1879 41.4376C21.1917 41.6025 21.1922 41.9065 21.1894 42.3498C21.1995 42.7894 21.2682 43.3167 21.3955 43.9316C22.0217 42.8887 22.6427 41.8264 23.2584 40.7448C23.874 39.6633 24.4431 38.6637 24.9654 37.746ZM37.3029 45.4138C36.1457 45.7314 35.1357 45.6284 34.273 45.1048C33.4196 44.5647 32.8111 43.6325 32.4476 42.3082C32.25 41.5881 32.1152 40.7195 32.0434 39.7022C31.968 38.6721 31.9364 37.5747 31.9485 36.4099C31.97 35.2288 32.0142 34.0552 32.0813 32.8892C32.1612 31.7196 32.2559 30.629 32.3654 29.6173C32.4748 28.6055 32.5798 27.754 32.6804 27.0628C32.7813 26.5235 33.0438 26.1956 33.4681 26.0792C33.7382 26.005 33.9797 26.0286 34.1927 26.1499C34.4186 26.2676 34.5827 26.5129 34.6851 26.8858C34.7345 27.0658 34.7521 27.4827 34.738 28.1364C34.7239 28.7901 34.6907 29.6012 34.6385 30.5695C34.5956 31.5215 34.5465 32.5512 34.491 33.6588C34.4484 34.7628 34.4204 35.8697 34.407 36.9795C34.4065 38.0857 34.4415 39.12 34.5121 40.0823C34.5791 41.0318 34.6991 41.8215 34.872 42.4515C34.9426 42.7087 35.0698 42.895 35.2536 43.0105C35.4502 43.1224 35.6707 43.1449 35.915 43.0778C36.4422 42.9331 36.9557 42.6884 37.4557 42.3438C37.9685 41.9956 38.4543 41.5996 38.9132 41.1556C39.3849 40.7081 39.8191 40.2502 40.216 39.7818C40.6128 39.3133 40.9635 38.8783 41.268 38.4767C41.5819 38.0587 41.8363 37.7262 42.0312 37.4791C42.2856 37.1466 42.4706 36.9644 42.5864 36.9327C43.0235 36.8127 43.3003 36.9648 43.4168 37.3891C43.445 37.492 43.3747 37.7395 43.2058 38.1315C43.0648 38.4744 42.8551 38.9191 42.5765 39.4656C42.2979 40.0122 41.9621 40.6022 41.569 41.2355C41.1853 41.8524 40.7559 42.4542 40.281 43.0408C39.8188 43.6239 39.3355 44.1299 38.831 44.5587C38.3266 44.9876 37.8172 45.2726 37.3029 45.4138ZM46.3613 47.8634C45.3969 48.1281 44.6446 48.2585 44.1044 48.2547C43.5769 48.2474 43.1915 48.1527 42.9479 47.9707C42.7079 47.8015 42.5561 47.6012 42.4926 47.3698C42.4044 47.0483 42.4349 46.7565 42.5841 46.4943C42.7463 46.2286 43.0009 46.0481 43.3481 45.9528C43.5795 45.8893 43.9226 45.8297 44.3774 45.774C44.8322 45.7182 45.2782 45.6304 45.7154 45.5104C47.0012 45.1575 47.9772 44.5577 48.6436 43.7111C49.3134 42.8774 49.7168 41.7781 49.8537 40.4131C49.9871 39.0353 49.8844 37.3767 49.5456 35.4372C49.0572 37.1337 48.393 38.5673 47.553 39.7381C46.7258 40.9053 45.7336 41.6478 44.5764 41.9654C43.2135 42.3395 42.3485 41.858 41.9814 40.5208C41.805 39.8779 41.7933 39.1552 41.9463 38.3528C42.0993 37.5503 42.3699 36.7225 42.7579 35.8694C43.1459 35.0162 43.6024 34.1858 44.1273 33.378C44.6486 32.5574 45.1912 31.8139 45.7549 31.1476C46.3315 30.4777 46.8849 29.9249 47.4151 29.489C47.9418 29.0402 48.3915 28.7647 48.7644 28.6623C49.0601 28.5812 49.3314 28.562 49.5782 28.6049C49.8379 28.6442 50.0744 28.8005 50.2877 29.0738C50.4974 29.3342 50.6817 29.7537 50.8405 30.3323C51.2817 31.9396 51.6509 33.5112 51.9481 35.0474C52.2418 36.5706 52.3962 38.0146 52.4113 39.3793C52.4264 40.7439 52.2431 41.9903 51.8614 43.1182C51.4925 44.2426 50.8661 45.2096 49.9822 46.0191C49.0983 46.8286 47.8913 47.4434 46.3613 47.8634ZM44.3442 39.4574C44.3689 39.5474 44.4199 39.5818 44.497 39.5607C44.7542 39.4901 45.0643 39.2598 45.4273 38.8698C45.7868 38.4669 46.1538 37.9652 46.5282 37.3647C46.9119 36.7478 47.2687 36.083 47.5984 35.3702C47.9247 34.6447 48.1878 33.9157 48.3877 33.1833C48.6005 32.4474 48.7093 31.7608 48.7141 31.1234C48.1514 31.6927 47.5806 32.3333 47.0017 33.0453C46.4322 33.7408 45.9118 34.4644 45.4406 35.2159C44.9823 35.9639 44.6403 36.7077 44.4146 37.4471C44.1983 38.1701 44.1748 38.8403 44.3442 39.4574ZM70.0269 36.0786C69.114 36.3292 68.2929 36.2089 67.5635 35.7178C66.8306 35.2138 66.3142 34.4154 66.0142 33.3225C65.9189 32.9753 65.8669 32.6094 65.858 32.2247C65.8621 31.8364 65.8925 31.4686 65.9492 31.1212C65.8403 31.0266 65.7354 30.8964 65.6346 30.7305C65.5431 30.5482 65.462 30.3285 65.3914 30.0714C65.162 29.2356 65.0999 28.43 65.205 27.6545C65.3066 26.8662 65.5376 26.146 65.8978 25.4941C66.2581 24.8421 66.7016 24.2917 67.2283 23.843C67.7549 23.3942 68.3268 23.0852 68.944 22.9158C69.9984 22.6263 70.9569 22.7435 71.8196 23.2671C72.6952 23.7872 73.3377 24.793 73.7471 26.2845C73.9518 27.0303 74.0443 27.8207 74.0246 28.6556C74.0049 29.4906 73.8929 30.3164 73.6884 31.133C73.4932 31.9332 73.2144 32.6803 72.8518 33.3744C72.5022 34.0649 72.0821 34.6503 71.5918 35.1306C71.1143 35.6073 70.5926 35.9233 70.0269 36.0786ZM67.9289 29.6445C68.032 29.7683 68.1101 29.9266 68.163 30.1194C68.2159 30.3123 68.2321 30.5222 68.2114 30.7491C68.1907 30.976 68.1895 31.2736 68.2076 31.6419C68.2222 31.9974 68.316 32.4902 68.4889 33.1202C68.5348 33.2874 68.5929 33.4235 68.6633 33.5286C68.7429 33.6174 68.8663 33.6388 69.0335 33.5929C69.4707 33.4729 69.8433 33.2185 70.1514 32.8298C70.4723 32.4375 70.7235 31.9676 70.9051 31.42C71.0995 30.8689 71.2283 30.2805 71.2916 29.6547C71.3642 29.0126 71.3772 28.3799 71.3306 27.7567C71.2933 27.1171 71.204 26.5401 71.0628 26.0258C70.9711 25.6915 70.8433 25.4777 70.6794 25.3845C70.5155 25.2912 70.2729 25.2886 69.9514 25.3769C69.5143 25.4969 69.1031 25.7618 68.7178 26.1718C68.3419 26.5653 68.065 27.0423 67.887 27.6027C67.7054 28.1503 67.6959 28.7198 67.8582 29.3113C67.89 29.427 67.9135 29.5381 67.9289 29.6445ZM80.5641 33.5596C80.0112 33.7113 79.5979 33.7418 79.3241 33.6511C79.0631 33.5568 78.8921 33.3617 78.8109 33.066C78.7403 32.8089 78.7703 32.5656 78.9009 32.3362C79.028 32.0939 79.3736 31.7916 79.9379 31.4293C80.5979 31.0131 81.2105 30.5753 81.7758 30.116C82.3503 29.6403 82.7957 29.1723 83.1119 28.7122C83.4409 28.2486 83.5524 27.8239 83.4466 27.4382C83.376 27.181 83.2348 27.0193 83.023 26.953C82.8241 26.8832 82.6089 26.88 82.3775 26.9435C82.1846 26.9965 81.9106 27.1063 81.5553 27.2729C81.2094 27.4232 80.8303 27.6033 80.4178 27.8133C80.0018 28.0104 79.5969 28.1976 79.2031 28.3749C78.8187 28.5357 78.485 28.6549 78.2021 28.7326C77.5335 28.9161 76.9979 28.9041 76.5953 28.6966C76.1891 28.4763 75.9208 28.1282 75.7902 27.6525C75.7196 27.3954 75.7575 27.0047 75.904 26.4806C76.0505 25.9564 76.2746 25.3626 76.5764 24.699C76.8782 24.0355 77.2314 23.3578 77.6361 22.666C78.0407 21.9742 78.4642 21.3257 78.9064 20.7204C79.3579 20.0987 79.8038 19.5822 80.244 19.171C80.6806 18.747 81.079 18.4856 81.439 18.3867C81.8504 18.2738 82.2136 18.3124 82.5285 18.5025C82.8562 18.689 83.0801 19.0009 83.2001 19.4381C83.2566 19.6438 83.2991 19.8741 83.3275 20.129C83.3525 20.371 83.3143 20.6096 83.2129 20.8449C83.1081 21.0672 82.9055 21.2611 82.6052 21.4265C82.305 21.5918 81.8643 21.699 81.2831 21.7479C80.9342 22.1893 80.5748 22.6682 80.205 23.1845C79.8444 23.6845 79.5149 24.1966 79.2164 24.721C78.9144 25.2325 78.6813 25.7182 78.5172 26.1781C78.9506 25.8932 79.457 25.6228 80.0367 25.3669C80.6127 25.0982 81.2094 24.8791 81.8265 24.7097C82.5723 24.505 83.2136 24.4741 83.7506 24.6171C84.297 24.7436 84.7394 24.9955 85.078 25.3727C85.4294 25.7463 85.6775 26.1967 85.8222 26.7239C85.9846 27.3153 85.954 27.9597 85.7307 28.6571C85.5073 29.3544 85.1412 30.0356 84.6324 30.7007C84.1237 31.3657 83.5177 31.9538 82.8146 32.4648C82.1114 32.9758 81.3613 33.3407 80.5641 33.5596Z" fill="white"/>
</svg>
