<svg width="120" height="41" viewBox="0 0 120 41" fill="none" xmlns="http://www.w3.org/2000/svg">
<rect x="0.5" y="1.40723" width="119" height="39" rx="5.5" fill="white"/>
<rect x="0.5" y="1.40723" width="119" height="39" rx="5.5" stroke="#703526"/>
<path d="M24.7045 21.6702C24.7166 20.7503 24.9669 19.8483 25.4321 19.0482C25.8972 18.2482 26.5621 17.5759 27.3648 17.0941C26.8548 16.383 26.1821 15.7979 25.4 15.3851C24.6178 14.9723 23.7479 14.7432 22.8592 14.7161C20.9635 14.5218 19.1258 15.8235 18.1598 15.8235C17.1751 15.8235 15.6878 14.7353 14.0862 14.7675C13.0502 14.8002 12.0406 15.0943 11.1557 15.6212C10.2708 16.1481 9.54075 16.8898 9.03674 17.774C6.85352 21.4644 8.48201 26.888 10.5734 29.8711C11.6197 31.3318 12.8426 32.9634 14.4428 32.9056C16.0086 32.8422 16.5934 31.9308 18.4835 31.9308C20.3561 31.9308 20.9048 32.9056 22.5374 32.8688C24.2176 32.8422 25.2762 31.4016 26.2859 29.927C27.0377 28.8862 27.6162 27.7359 28 26.5187C27.0238 26.1156 26.1908 25.4409 25.6048 24.5787C25.0187 23.7165 24.7056 22.705 24.7045 21.6702Z" fill="black"/>
<path d="M21.6208 12.7544C22.5369 11.6807 22.9883 10.3006 22.879 8.90723C21.4793 9.05075 20.1865 9.70382 19.258 10.7363C18.804 11.2407 18.4563 11.8276 18.2348 12.4632C18.0132 13.0989 17.9222 13.771 17.9669 14.441C18.6669 14.4481 19.3595 14.2999 19.9924 14.0078C20.6253 13.7156 21.1821 13.287 21.6208 12.7544Z" fill="black"/>
<path d="M36.791 9.40869H38.8608C40.6494 9.40869 41.5195 10.4722 41.5195 12.4014C41.5195 14.3306 40.6406 15.4072 38.8608 15.4072H36.791V9.40869ZM37.7886 10.248V14.5679H38.751C39.9375 14.5679 40.4956 13.8516 40.4956 12.4146C40.4956 10.9688 39.9331 10.248 38.751 10.248H37.7886ZM44.6748 10.6831C45.8877 10.6831 46.7358 11.4697 46.7358 12.7749V13.377C46.7358 14.7261 45.8877 15.4863 44.6748 15.4863C43.4443 15.4863 42.605 14.7349 42.605 13.3813V12.7793C42.605 11.5093 43.4575 10.6831 44.6748 10.6831ZM44.6792 11.4697C43.9849 11.4697 43.5894 12.0498 43.5894 12.8276V13.3462C43.5894 14.124 43.9585 14.6997 44.6792 14.6997C45.3911 14.6997 45.7559 14.1284 45.7559 13.3462V12.8276C45.7559 12.0498 45.3735 11.4697 44.6792 11.4697ZM53.8989 10.7622L52.6772 15.4072H51.6841L50.7129 11.9795H50.6865L49.7329 15.4072H48.7354L47.4609 10.7622H48.5112L49.2583 14.3042H49.3022L50.2383 10.7622H51.1567L52.1191 14.3042H52.1631L52.9233 10.7622H53.8989ZM54.8657 15.4072V10.7622H55.8237V11.5972H55.8721C55.9907 11.2324 56.3291 10.6919 57.2695 10.6919C58.2056 10.6919 58.834 11.2104 58.834 12.2695V15.4072H57.8584V12.5552C57.8584 11.8477 57.4893 11.5225 56.9399 11.5225C56.2192 11.5225 55.8413 12.0762 55.8413 12.8276V15.4072H54.8657ZM60.3105 15.4072V9.09229H61.2861V15.4072H60.3105ZM64.6348 10.6831C65.8477 10.6831 66.6958 11.4697 66.6958 12.7749V13.377C66.6958 14.7261 65.8477 15.4863 64.6348 15.4863C63.4043 15.4863 62.5649 14.7349 62.5649 13.3813V12.7793C62.5649 11.5093 63.4175 10.6831 64.6348 10.6831ZM64.6392 11.4697C63.9448 11.4697 63.5493 12.0498 63.5493 12.8276V13.3462C63.5493 14.124 63.9185 14.6997 64.6392 14.6997C65.3511 14.6997 65.7158 14.1284 65.7158 13.3462V12.8276C65.7158 12.0498 65.3335 11.4697 64.6392 11.4697ZM69.2227 15.4775C68.3218 15.4775 67.7021 14.9238 67.7021 14.0581C67.7021 13.2363 68.2734 12.6826 69.3457 12.6826H70.519V12.2476C70.519 11.7158 70.1807 11.4653 69.6445 11.4653C69.1172 11.4653 68.8799 11.6851 68.8052 11.9927H67.8779C67.9351 11.2148 68.5195 10.6919 69.6753 10.6919C70.6685 10.6919 71.4902 11.105 71.4902 12.2607V15.4072H70.563V14.8052H70.519C70.3125 15.1611 69.9082 15.4775 69.2227 15.4775ZM69.5259 14.7217C70.0796 14.7217 70.519 14.3438 70.519 13.8384V13.3374H69.4995C68.9326 13.3374 68.6821 13.623 68.6821 14.0098C68.6821 14.4932 69.0864 14.7217 69.5259 14.7217ZM74.4961 10.7007C75.1509 10.7007 75.6519 10.9907 75.832 11.4609H75.8804V9.09229H76.856V15.4072H75.9067V14.6646H75.8584C75.7178 15.1348 75.1597 15.4688 74.4829 15.4688C73.415 15.4688 72.7207 14.7085 72.7207 13.4824V12.687C72.7207 11.4609 73.4282 10.7007 74.4961 10.7007ZM74.7686 11.5005C74.1182 11.5005 73.7139 11.9839 73.7139 12.8276V13.3374C73.7139 14.1855 74.1226 14.6689 74.7905 14.6689C75.4497 14.6689 75.8804 14.1899 75.8804 13.3989V12.6958C75.8804 11.9795 75.4102 11.5005 74.7686 11.5005ZM82.2129 10.6831C83.4258 10.6831 84.2739 11.4697 84.2739 12.7749V13.377C84.2739 14.7261 83.4258 15.4863 82.2129 15.4863C80.9824 15.4863 80.1431 14.7349 80.1431 13.3813V12.7793C80.1431 11.5093 80.9956 10.6831 82.2129 10.6831ZM82.2173 11.4697C81.5229 11.4697 81.1274 12.0498 81.1274 12.8276V13.3462C81.1274 14.124 81.4966 14.6997 82.2173 14.6997C82.9292 14.6997 83.2939 14.1284 83.2939 13.3462V12.8276C83.2939 12.0498 82.9116 11.4697 82.2173 11.4697ZM85.5308 15.4072V10.7622H86.4888V11.5972H86.5371C86.6558 11.2324 86.9941 10.6919 87.9346 10.6919C88.8706 10.6919 89.499 11.2104 89.499 12.2695V15.4072H88.5234V12.5552C88.5234 11.8477 88.1543 11.5225 87.605 11.5225C86.8843 11.5225 86.5063 12.0762 86.5063 12.8276V15.4072H85.5308ZM93.2739 10.793V9.63281H94.2275V10.793H95.269V11.5576H94.2275V14.0229C94.2275 14.5283 94.4165 14.6689 94.9395 14.6689C95.0713 14.6689 95.2471 14.6602 95.3218 14.6514V15.3984C95.2427 15.4116 94.9175 15.438 94.6978 15.438C93.5684 15.438 93.2607 15.0337 93.2607 14.1021V11.5576H92.5532V10.793H93.2739ZM96.4995 15.4072V9.09229H97.4707V11.5972H97.519C97.6201 11.2676 97.998 10.6919 98.9297 10.6919C99.835 10.6919 100.481 11.2148 100.481 12.2739V15.4072H99.5098V12.5596C99.5098 11.8521 99.1187 11.5225 98.5649 11.5225C97.8662 11.5225 97.4707 12.0718 97.4707 12.8276V15.4072H96.4995ZM103.755 15.4863C102.489 15.4863 101.703 14.7085 101.703 13.3989V12.7705C101.703 11.4521 102.564 10.6831 103.698 10.6831C104.862 10.6831 105.684 11.4917 105.684 12.7705V13.3154H102.669V13.5439C102.669 14.2119 103.065 14.7041 103.75 14.7041C104.26 14.7041 104.612 14.4624 104.678 14.1724H105.631C105.574 14.7085 105.007 15.4863 103.755 15.4863ZM102.669 12.6782H104.73V12.6167C104.73 11.918 104.322 11.4521 103.702 11.4521C103.083 11.4521 102.669 11.918 102.669 12.6167V12.6782Z" fill="black"/>
<path d="M38.2061 31.4072H36.1758L40.3066 19.4102H42.5391L46.6611 31.4072H44.5518L43.4883 28.085H39.2783L38.2061 31.4072ZM41.4316 21.4844H41.3525L39.7266 26.5557H43.04L41.4316 21.4844ZM52.2644 31.5391C51.0603 31.5391 50.1462 30.9678 49.654 30.1152H49.5837V34.4922H47.6325V22.1172H49.531V23.4795H49.6013C50.1111 22.5918 51.0603 21.9941 52.3083 21.9941C54.3913 21.9941 55.8767 23.5674 55.8767 26.3447V27.1709C55.8767 29.9307 54.4089 31.5391 52.2644 31.5391ZM51.8161 29.9307C53.0554 29.9307 53.8991 28.9375 53.8991 27.0654V26.415C53.8991 24.6133 53.1081 23.585 51.781 23.585C50.4187 23.585 49.5661 24.6924 49.5661 26.4062V27.0654C49.5661 28.8232 50.4275 29.9307 51.8161 29.9307ZM62.183 31.5391C60.9789 31.5391 60.0649 30.9678 59.5727 30.1152H59.5024V34.4922H57.5512V22.1172H59.4496V23.4795H59.52C60.0297 22.5918 60.9789 21.9941 62.227 21.9941C64.31 21.9941 65.7954 23.5674 65.7954 26.3447V27.1709C65.7954 29.9307 64.3276 31.5391 62.183 31.5391ZM61.7348 29.9307C62.9741 29.9307 63.8178 28.9375 63.8178 27.0654V26.415C63.8178 24.6133 63.0268 23.585 61.6996 23.585C60.3373 23.585 59.4848 24.6924 59.4848 26.4062V27.0654C59.4848 28.8232 60.3461 29.9307 61.7348 29.9307ZM69.8387 28.0762H71.7899C71.8778 29.1133 72.7919 30.001 74.4882 30.001C76.0438 30.001 76.9667 29.2715 76.9667 28.1377C76.9667 27.2236 76.3514 26.7314 75.0682 26.4238L73.0995 25.9316C71.5526 25.5713 70.1639 24.6484 70.1639 22.6973C70.1639 20.4033 72.1679 19.1465 74.497 19.1465C76.8261 19.1465 78.7684 20.4033 78.8124 22.6445H76.8964C76.8085 21.625 76.0262 20.7812 74.4706 20.7812C73.0995 20.7812 72.1679 21.4316 72.1679 22.5479C72.1679 23.3301 72.7128 23.8926 73.829 24.1475L75.7889 24.6309C77.5907 25.0703 78.9618 25.9229 78.9618 27.9619C78.9618 30.3174 77.0546 31.6445 74.3387 31.6445C70.9989 31.6445 69.8827 29.6934 69.8387 28.0762ZM81.3395 22.1172V19.8584H83.2555V22.1172H85.066V23.6816H83.2555V28.6387C83.2555 29.6494 83.6334 29.9307 84.6793 29.9307C84.8463 29.9307 85.0045 29.9307 85.1188 29.9131V31.4072C84.9605 31.4336 84.5914 31.4688 84.1959 31.4688C81.9371 31.4688 81.3131 30.6602 81.3131 28.7969V23.6816H80.0299V22.1172H81.3395ZM90.3353 21.959C93.0071 21.959 94.4573 23.8398 94.4573 26.3711V27.1182C94.4573 29.7373 93.0159 31.5654 90.3353 31.5654C87.6546 31.5654 86.1956 29.7373 86.1956 27.1182V26.3711C86.1956 23.8486 87.6634 21.959 90.3353 21.959ZM90.3353 23.5234C88.8851 23.5234 88.1644 24.71 88.1644 26.3975V27.1094C88.1644 28.7705 88.8763 29.9922 90.3353 29.9922C91.7943 29.9922 92.4974 28.7793 92.4974 27.1094V26.3975C92.4974 24.7012 91.7855 23.5234 90.3353 23.5234ZM96.1055 31.4072V22.1172H98.0567V23.3389H98.127C98.3643 22.7588 99.0586 21.9854 100.351 21.9854C100.606 21.9854 100.825 22.0029 101.01 22.0381V23.7607C100.843 23.7168 100.5 23.6904 100.175 23.6904C98.6104 23.6904 98.083 24.6572 98.083 25.9053V31.4072H96.1055ZM105.743 31.5654C103.256 31.5654 101.674 29.9219 101.674 27.1709V26.2305C101.674 23.6377 103.22 21.959 105.664 21.959C108.142 21.959 109.636 23.6992 109.636 26.3184V27.2061H103.598V27.4258C103.598 28.9902 104.442 30.0273 105.769 30.0273C106.762 30.0273 107.439 29.5352 107.677 28.7354H109.531C109.25 30.2383 108.037 31.5654 105.743 31.5654ZM103.598 25.8438H107.729V25.8262C107.729 24.5078 106.912 23.4707 105.673 23.4707C104.416 23.4707 103.598 24.5078 103.598 25.8262V25.8438Z" fill="black"/>
</svg>
