<svg width="120" height="41" viewBox="0 0 120 41" fill="none" xmlns="http://www.w3.org/2000/svg">
<rect x="0.5" y="1.40723" width="119" height="39" rx="5.5" fill="white"/>
<rect x="0.5" y="1.40723" width="119" height="39" rx="5.5" stroke="#703526"/>
<path d="M17.8048 20.3689L8.0896 30.9132C8.09051 30.915 8.09051 30.9178 8.09142 30.9197C8.38981 32.0646 9.41179 32.9072 10.6254 32.9072C11.1108 32.9072 11.5662 32.7729 11.9567 32.5377L11.9877 32.519L22.9229 26.0665L17.8048 20.3689Z" fill="#EA4335"/>
<path d="M27.6331 18.5734L27.624 18.5669L22.9028 15.7685L17.5839 20.6085L22.922 26.0654L27.6176 23.295C28.4407 22.8396 29 21.9522 29 20.9295C29 19.9124 28.4489 19.0297 27.6331 18.5734Z" fill="#FBBC04"/>
<path d="M8.08942 10.9005C8.03102 11.1207 8 11.3521 8 11.591V30.2235C8 30.4624 8.03102 30.6938 8.09034 30.9131L18.1386 20.6385L8.08942 10.9005Z" fill="#4285F4"/>
<path d="M17.8766 20.9072L22.9044 15.7667L11.982 9.29082C11.585 9.04728 11.1215 8.90731 10.626 8.90731C9.4124 8.90731 8.38859 9.75179 8.09021 10.8977C8.09021 10.8986 8.08929 10.8995 8.08929 10.9005L17.8766 20.9072Z" fill="#34A853"/>
<path d="M43.61 12.6172C43.61 13.6172 43.3133 14.4139 42.72 15.0072C42.0533 15.7139 41.1767 16.0672 40.09 16.0672C39.05 16.0672 38.17 15.7072 37.45 14.9872C36.73 14.2672 36.37 13.3806 36.37 12.3272C36.37 11.2739 36.73 10.3872 37.45 9.66723C38.17 8.94723 39.05 8.58723 40.09 8.58723C40.6167 8.58723 41.1133 8.68056 41.58 8.86723C42.0467 9.05389 42.43 9.31723 42.73 9.65723L42.07 10.3172C41.85 10.0506 41.5633 9.84389 41.21 9.69723C40.8633 9.54389 40.49 9.46723 40.09 9.46723C39.31 9.46723 38.65 9.73723 38.11 10.2772C37.5767 10.8239 37.31 11.5072 37.31 12.3272C37.31 13.1472 37.5767 13.8306 38.11 14.3772C38.65 14.9172 39.31 15.1872 40.09 15.1872C40.8033 15.1872 41.3967 14.9872 41.87 14.5872C42.3433 14.1872 42.6167 13.6372 42.69 12.9372H40.09V12.0772H43.56C43.5933 12.2639 43.61 12.4439 43.61 12.6172ZM48.9078 8.74723V9.62723H45.6478V11.8972H48.5878V12.7572H45.6478V15.0272H48.9078V15.9072H44.7278V8.74723H48.9078ZM52.5877 9.62723V15.9072H51.6677V9.62723H49.6677V8.74723H54.5877V9.62723H52.5877ZM58.6654 15.9072H57.7454V8.74723H58.6654V15.9072ZM62.5487 9.62723V15.9072H61.6287V9.62723H59.6287V8.74723H64.5487V9.62723H62.5487ZM74.521 12.3272C74.521 13.3872 74.1677 14.2739 73.461 14.9872C72.7477 15.7072 71.8743 16.0672 70.841 16.0672C69.801 16.0672 68.9277 15.7072 68.221 14.9872C67.5143 14.2739 67.161 13.3872 67.161 12.3272C67.161 11.2672 67.5143 10.3806 68.221 9.66723C68.9277 8.94723 69.801 8.58723 70.841 8.58723C71.881 8.58723 72.7543 8.95056 73.461 9.67723C74.1677 10.3906 74.521 11.2739 74.521 12.3272ZM68.101 12.3272C68.101 13.1539 68.361 13.8372 68.881 14.3772C69.4077 14.9172 70.061 15.1872 70.841 15.1872C71.621 15.1872 72.271 14.9172 72.791 14.3772C73.3177 13.8439 73.581 13.1606 73.581 12.3272C73.581 11.4939 73.3177 10.8106 72.791 10.2772C72.271 9.73723 71.621 9.46723 70.841 9.46723C70.061 9.46723 69.4077 9.73723 68.881 10.2772C68.361 10.8172 68.101 11.5006 68.101 12.3272ZM76.5267 15.9072H75.6067V8.74723H76.7267L80.2067 14.3172H80.2467L80.2067 12.9372V8.74723H81.1267V15.9072H80.1667L76.5267 10.0672H76.4867L76.5267 11.4472V15.9072Z" fill="black"/>
<path d="M93.5181 32.3169H95.1469V21.3054H93.5181V32.3169ZM108.189 25.2718L106.322 30.046H106.266L104.328 25.2718H102.573L105.479 31.9443L103.823 35.6562H105.521L110 25.2718H108.189ZM98.9519 31.0661C98.4176 31.0661 97.6739 30.7974 97.6739 30.1306C97.6739 29.2815 98.6001 28.9556 99.4005 28.9556C100.116 28.9556 100.454 29.1115 100.889 29.3238C100.762 30.3438 99.892 31.0661 98.9519 31.0661ZM99.1483 25.0314C97.969 25.0314 96.7469 25.5555 96.2424 26.7173L97.6879 27.326C97.9969 26.7173 98.5721 26.5182 99.1762 26.5182C100.019 26.5182 100.875 27.0283 100.889 27.9355V28.0483C100.594 27.8783 99.9627 27.6237 99.1902 27.6237C97.632 27.6237 96.0451 28.4878 96.0451 30.1024C96.0451 31.5761 97.323 32.5256 98.7546 32.5256C99.8501 32.5256 100.454 32.0297 100.833 31.4484H100.889V32.2984H102.461V28.0765C102.461 26.1219 101.015 25.0314 99.1483 25.0314ZM89.0821 26.6125H86.7655V22.838H89.0821C90.2998 22.838 90.9911 23.8554 90.9911 24.7248C90.9911 25.5784 90.2998 26.6125 89.0821 26.6125ZM89.0402 21.3054H85.1375V32.3169H86.7655V28.1452H89.0402C90.8453 28.1452 92.6199 26.8257 92.6199 24.7248C92.6199 22.624 90.8453 21.3054 89.0402 21.3054ZM67.7583 31.0678C66.6332 31.0678 65.6913 30.1174 65.6913 28.812C65.6913 27.4925 66.6332 26.5271 67.7583 26.5271C68.8695 26.5271 69.7406 27.4925 69.7406 28.812C69.7406 30.1174 68.8695 31.0678 67.7583 31.0678ZM69.6289 25.8884H69.5722C69.2064 25.4489 68.5038 25.0516 67.6178 25.0516C65.7611 25.0516 64.0599 26.6971 64.0599 28.812C64.0599 30.9119 65.7611 32.5441 67.6178 32.5441C68.5038 32.5441 69.2064 32.1469 69.5722 31.6924H69.6289V32.2323C69.6289 33.6655 68.8695 34.4318 67.6457 34.4318C66.6471 34.4318 66.0282 33.7077 65.7751 33.0973L64.3549 33.6936C64.7626 34.6872 65.8458 35.9072 67.6457 35.9072C69.5582 35.9072 71.1757 34.7718 71.1757 32.0051V25.278H69.6289V25.8884ZM72.3008 32.3169H73.9323V21.3045H72.3008V32.3169ZM76.3362 28.6843C76.2943 27.237 77.4474 26.4989 78.2766 26.4989C78.9243 26.4989 79.4725 26.8248 79.6549 27.2934L76.3362 28.6843ZM81.3989 27.4352C81.0899 26.5984 80.1472 25.0516 78.2208 25.0516C76.3083 25.0516 74.7196 26.5693 74.7196 28.7979C74.7196 30.8978 76.2943 32.5441 78.4032 32.5441C80.1053 32.5441 81.0899 31.4942 81.4976 30.8837L80.2319 30.032C79.8103 30.6565 79.2333 31.0678 78.4032 31.0678C77.5739 31.0678 76.983 30.6847 76.6033 29.9333L81.5674 27.8607L81.3989 27.4352ZM41.8501 26.2011V27.7902H45.6184C45.5058 28.6843 45.2107 29.337 44.7612 29.7906C44.2121 30.3447 43.3541 30.9551 41.8501 30.9551C39.5291 30.9551 37.7152 29.0674 37.7152 26.7261C37.7152 24.3839 39.5291 22.4972 41.8501 22.4972C43.1018 22.4972 44.0157 22.994 44.6905 23.6326L45.8017 22.5113C44.8589 21.6031 43.6081 20.9072 41.8501 20.9072C38.6719 20.9072 36 23.5189 36 26.7261C36 29.9333 38.6719 32.5441 41.8501 32.5441C43.5653 32.5441 44.8589 31.976 45.8715 30.9119C46.9129 29.862 47.2358 28.3865 47.2358 27.1939C47.2358 26.8248 47.2079 26.4848 47.1512 26.2011H41.8501ZM51.5208 31.0678C50.3957 31.0678 49.425 30.1315 49.425 28.7979C49.425 27.4493 50.3957 26.5271 51.5208 26.5271C52.6451 26.5271 53.6158 27.4493 53.6158 28.7979C53.6158 30.1315 52.6451 31.0678 51.5208 31.0678ZM51.5208 25.0516C49.4669 25.0516 47.7936 26.6266 47.7936 28.7979C47.7936 30.9551 49.4669 32.5441 51.5208 32.5441C53.5739 32.5441 55.2472 30.9551 55.2472 28.7979C55.2472 26.6266 53.5739 25.0516 51.5208 25.0516ZM59.65 31.0678C58.5249 31.0678 57.5542 30.1315 57.5542 28.7979C57.5542 27.4493 58.5249 26.5271 59.65 26.5271C60.7752 26.5271 61.745 27.4493 61.745 28.7979C61.745 30.1315 60.7752 31.0678 59.65 31.0678ZM59.65 25.0516C57.597 25.0516 55.9237 26.6266 55.9237 28.7979C55.9237 30.9551 57.597 32.5441 59.65 32.5441C61.7031 32.5441 63.3764 30.9551 63.3764 28.7979C63.3764 26.6266 61.7031 25.0516 59.65 25.0516Z" fill="black"/>
</svg>
